<svg xmlns="http://www.w3.org/2000/svg" xmlns:xlink="http://www.w3.org/1999/xlink" width="94" zoomAndPan="magnify" viewBox="0 0 70.5 62.999997" height="84" preserveAspectRatio="xMidYMid meet" version="1.0"><defs><clipPath id="52b40f3363"><path d="M 0 0.222656 L 70 0.222656 L 70 62.035156 L 0 62.035156 Z M 0 0.222656 " clip-rule="nonzero"/></clipPath></defs><g clip-path="url(#52b40f3363)"><path fill="#d9d9d9" d="M 69.636719 31.121094 C 69.636719 33.296875 67.824219 35 65.765625 35 L 61.898438 35 L 61.980469 54.375 C 62.007812 58.667969 58.535156 62.148438 54.242188 62.148438 L 15.496094 62.148438 C 11.226562 62.148438 7.757812 58.679688 7.757812 54.410156 L 7.757812 35.011719 L 3.886719 35.011719 C 1.710938 35.011719 0.015625 33.320312 0.015625 31.132812 C 0.015625 30.042969 0.378906 29.074219 1.226562 28.230469 L 32.222656 1.1875 C 33.066406 0.34375 34.035156 0.222656 34.882812 0.222656 C 35.726562 0.222656 36.695312 0.464844 37.421875 1.066406 L 68.304688 28.21875 C 69.273438 29.0625 69.757812 30.03125 69.636719 31.121094 Z M 42.574219 27.308594 C 42.574219 26.800781 42.523438 26.296875 42.425781 25.800781 C 42.324219 25.300781 42.179688 24.816406 41.984375 24.347656 C 41.789062 23.878906 41.550781 23.433594 41.269531 23.011719 C 40.984375 22.585938 40.664062 22.195312 40.304688 21.835938 C 39.945312 21.476562 39.554688 21.15625 39.132812 20.875 C 38.710938 20.59375 38.265625 20.355469 37.792969 20.160156 C 37.324219 19.964844 36.839844 19.820312 36.34375 19.71875 C 35.84375 19.621094 35.339844 19.570312 34.832031 19.570312 C 34.324219 19.570312 33.820312 19.621094 33.324219 19.71875 C 32.824219 19.820312 32.339844 19.964844 31.871094 20.160156 C 31.402344 20.355469 30.957031 20.59375 30.53125 20.875 C 30.109375 21.15625 29.71875 21.476562 29.359375 21.835938 C 29 22.195312 28.679688 22.585938 28.398438 23.011719 C 28.117188 23.433594 27.878906 23.878906 27.683594 24.347656 C 27.488281 24.816406 27.339844 25.300781 27.242188 25.800781 C 27.144531 26.296875 27.09375 26.800781 27.09375 27.308594 C 27.09375 27.820312 27.144531 28.320312 27.242188 28.820312 C 27.339844 29.320312 27.488281 29.800781 27.683594 30.273438 C 27.878906 30.742188 28.117188 31.1875 28.398438 31.609375 C 28.679688 32.03125 29 32.421875 29.359375 32.78125 C 29.71875 33.140625 30.109375 33.464844 30.53125 33.746094 C 30.957031 34.027344 31.402344 34.265625 31.871094 34.460938 C 32.339844 34.65625 32.824219 34.800781 33.324219 34.902344 C 33.820312 35 34.324219 35.050781 34.832031 35.050781 C 35.339844 35.050781 35.84375 35 36.34375 34.902344 C 36.839844 34.800781 37.324219 34.65625 37.792969 34.460938 C 38.265625 34.265625 38.710938 34.027344 39.132812 33.746094 C 39.554688 33.464844 39.945312 33.140625 40.304688 32.78125 C 40.664062 32.421875 40.984375 32.03125 41.269531 31.609375 C 41.550781 31.1875 41.789062 30.742188 41.984375 30.273438 C 42.179688 29.800781 42.324219 29.320312 42.425781 28.820312 C 42.523438 28.320312 42.574219 27.820312 42.574219 27.308594 Z M 30.964844 38.917969 C 25.617188 38.917969 21.289062 43.25 21.289062 48.59375 C 21.289062 49.65625 22.160156 50.527344 23.222656 50.527344 L 46.441406 50.527344 C 47.507812 50.527344 48.378906 49.65625 48.378906 48.59375 C 48.378906 43.25 44.046875 38.917969 38.703125 38.917969 Z M 30.964844 38.917969 " fill-opacity="1" fill-rule="nonzero"/><path fill="#d9d9d9" d="M 69.636719 31.121094 C 69.636719 33.296875 67.824219 35 65.765625 35 L 61.898438 35 L 61.980469 54.375 C 62.007812 58.667969 58.535156 62.148438 54.242188 62.148438 L 15.496094 62.148438 C 11.226562 62.148438 7.757812 58.679688 7.757812 54.410156 L 7.757812 35.011719 L 3.886719 35.011719 C 1.710938 35.011719 0.015625 33.320312 0.015625 31.132812 C 0.015625 30.042969 0.378906 29.074219 1.226562 28.230469 L 32.222656 1.1875 C 33.066406 0.34375 34.035156 0.222656 34.882812 0.222656 C 35.726562 0.222656 36.695312 0.464844 37.421875 1.066406 L 68.304688 28.21875 C 69.273438 29.0625 69.757812 30.03125 69.636719 31.121094 Z M 42.574219 27.308594 C 42.574219 26.800781 42.523438 26.296875 42.425781 25.800781 C 42.324219 25.300781 42.179688 24.816406 41.984375 24.347656 C 41.789062 23.878906 41.550781 23.433594 41.269531 23.011719 C 40.984375 22.585938 40.664062 22.195312 40.304688 21.835938 C 39.945312 21.476562 39.554688 21.15625 39.132812 20.875 C 38.710938 20.59375 38.265625 20.355469 37.792969 20.160156 C 37.324219 19.964844 36.839844 19.820312 36.34375 19.71875 C 35.84375 19.621094 35.339844 19.570312 34.832031 19.570312 C 34.324219 19.570312 33.820312 19.621094 33.324219 19.71875 C 32.824219 19.820312 32.339844 19.964844 31.871094 20.160156 C 31.402344 20.355469 30.957031 20.59375 30.53125 20.875 C 30.109375 21.15625 29.71875 21.476562 29.359375 21.835938 C 29 22.195312 28.679688 22.585938 28.398438 23.011719 C 28.117188 23.433594 27.878906 23.878906 27.683594 24.347656 C 27.488281 24.816406 27.339844 25.300781 27.242188 25.800781 C 27.144531 26.296875 27.09375 26.800781 27.09375 27.308594 C 27.09375 27.820312 27.144531 28.320312 27.242188 28.820312 C 27.339844 29.320312 27.488281 29.800781 27.683594 30.273438 C 27.878906 30.742188 28.117188 31.1875 28.398438 31.609375 C 28.679688 32.03125 29 32.421875 29.359375 32.78125 C 29.71875 33.140625 30.109375 33.464844 30.53125 33.746094 C 30.957031 34.027344 31.402344 34.265625 31.871094 34.460938 C 32.339844 34.65625 32.824219 34.800781 33.324219 34.902344 C 33.820312 35 34.324219 35.050781 34.832031 35.050781 C 35.339844 35.050781 35.84375 35 36.34375 34.902344 C 36.839844 34.800781 37.324219 34.65625 37.792969 34.460938 C 38.265625 34.265625 38.710938 34.027344 39.132812 33.746094 C 39.554688 33.464844 39.945312 33.140625 40.304688 32.78125 C 40.664062 32.421875 40.984375 32.03125 41.269531 31.609375 C 41.550781 31.1875 41.789062 30.742188 41.984375 30.273438 C 42.179688 29.800781 42.324219 29.320312 42.425781 28.820312 C 42.523438 28.320312 42.574219 27.820312 42.574219 27.308594 Z M 30.964844 38.917969 C 25.617188 38.917969 21.289062 43.25 21.289062 48.59375 C 21.289062 49.65625 22.160156 50.527344 23.222656 50.527344 L 46.441406 50.527344 C 47.507812 50.527344 48.378906 49.65625 48.378906 48.59375 C 48.378906 43.25 44.046875 38.917969 38.703125 38.917969 Z M 30.964844 38.917969 " fill-opacity="1" fill-rule="nonzero"/></g></svg>