<svg xmlns="http://www.w3.org/2000/svg" xmlns:xlink="http://www.w3.org/1999/xlink" width="96" zoomAndPan="magnify" viewBox="0 0 72 63.749997" height="85" preserveAspectRatio="xMidYMid meet" version="1.0"><defs><clipPath id="28be330575"><path d="M 2 0 L 70 0 L 70 63.5 L 2 63.5 Z M 2 0 " clip-rule="nonzero"/></clipPath></defs><g clip-path="url(#28be330575)"><path fill="#00a3ff" d="M 67.667969 12.800781 L 60.601562 1.617188 C 59.972656 0.617188 58.851562 0 57.65625 0 L 13.65625 0 C 12.460938 0 11.335938 0.617188 10.707031 1.617188 L 3.628906 12.800781 C -0.0195312 18.570312 3.210938 26.601562 10.03125 27.523438 C 10.523438 27.585938 11.03125 27.625 11.523438 27.625 C 14.742188 27.625 17.601562 26.21875 19.5625 24.046875 C 21.523438 26.21875 24.382812 27.625 27.601562 27.625 C 30.820312 27.625 33.683594 26.21875 35.644531 24.046875 C 37.605469 26.21875 40.464844 27.625 43.683594 27.625 C 46.914062 27.625 49.761719 26.21875 51.722656 24.046875 C 53.695312 26.21875 56.546875 27.625 59.765625 27.625 C 60.269531 27.625 60.761719 27.585938 61.257812 27.523438 C 68.101562 26.613281 71.34375 18.585938 67.679688 12.800781 Z M 61.761719 31.433594 C 61.761719 31.433594 61.761719 31.433594 61.75 31.433594 C 61.097656 31.519531 60.429688 31.570312 59.75 31.570312 C 58.222656 31.570312 56.753906 31.335938 55.386719 30.914062 L 55.386719 47.355469 L 15.925781 47.355469 L 15.925781 30.902344 C 14.542969 31.335938 13.0625 31.570312 11.535156 31.570312 C 10.855469 31.570312 10.179688 31.519531 9.523438 31.433594 L 9.511719 31.433594 C 9.007812 31.359375 8.515625 31.273438 8.03125 31.148438 L 8.03125 55.246094 C 8.03125 59.597656 11.570312 63.136719 15.925781 63.136719 L 55.386719 63.136719 C 59.738281 63.136719 63.277344 59.597656 63.277344 55.246094 L 63.277344 31.148438 C 62.785156 31.273438 62.292969 31.371094 61.761719 31.433594 Z M 61.761719 31.433594 " fill-opacity="1" fill-rule="nonzero"/><path fill="#00a3ff" d="M 67.667969 12.800781 L 60.601562 1.617188 C 59.972656 0.617188 58.851562 0 57.65625 0 L 13.65625 0 C 12.460938 0 11.335938 0.617188 10.707031 1.617188 L 3.628906 12.800781 C -0.0195312 18.570312 3.210938 26.601562 10.03125 27.523438 C 10.523438 27.585938 11.03125 27.625 11.523438 27.625 C 14.742188 27.625 17.601562 26.21875 19.5625 24.046875 C 21.523438 26.21875 24.382812 27.625 27.601562 27.625 C 30.820312 27.625 33.683594 26.21875 35.644531 24.046875 C 37.605469 26.21875 40.464844 27.625 43.683594 27.625 C 46.914062 27.625 49.761719 26.21875 51.722656 24.046875 C 53.695312 26.21875 56.546875 27.625 59.765625 27.625 C 60.269531 27.625 60.761719 27.585938 61.257812 27.523438 C 68.101562 26.613281 71.34375 18.585938 67.679688 12.800781 Z M 61.761719 31.433594 C 61.761719 31.433594 61.761719 31.433594 61.75 31.433594 C 61.097656 31.519531 60.429688 31.570312 59.75 31.570312 C 58.222656 31.570312 56.753906 31.335938 55.386719 30.914062 L 55.386719 47.355469 L 15.925781 47.355469 L 15.925781 30.902344 C 14.542969 31.335938 13.0625 31.570312 11.535156 31.570312 C 10.855469 31.570312 10.179688 31.519531 9.523438 31.433594 L 9.511719 31.433594 C 9.007812 31.359375 8.515625 31.273438 8.03125 31.148438 L 8.03125 55.246094 C 8.03125 59.597656 11.570312 63.136719 15.925781 63.136719 L 55.386719 63.136719 C 59.738281 63.136719 63.277344 59.597656 63.277344 55.246094 L 63.277344 31.148438 C 62.785156 31.273438 62.292969 31.371094 61.761719 31.433594 Z M 61.761719 31.433594 " fill-opacity="1" fill-rule="nonzero"/></g></svg>