<svg xmlns="http://www.w3.org/2000/svg" xmlns:xlink="http://www.w3.org/1999/xlink" width="93" zoomAndPan="magnify" viewBox="0 0 69.75 56.249996" height="75" preserveAspectRatio="xMidYMid meet" version="1.0"><defs><clipPath id="f3eac7519c"><path d="M 0.335938 0 L 69.167969 0 L 69.167969 54.769531 L 0.335938 54.769531 Z M 0.335938 0 " clip-rule="nonzero"/></clipPath><clipPath id="4f65ad063e"><path d="M 0.335938 0.507812 L 69.167969 0.507812 L 69.167969 55.277344 L 0.335938 55.277344 Z M 0.335938 0.507812 " clip-rule="nonzero"/></clipPath></defs><g clip-path="url(#f3eac7519c)"><path fill="#00a3ff" d="M 10.644531 13.75 C 10.644531 12.847656 10.734375 11.953125 10.910156 11.066406 C 11.085938 10.183594 11.34375 9.324219 11.691406 8.488281 C 12.035156 7.65625 12.460938 6.863281 12.960938 6.113281 C 13.460938 5.363281 14.03125 4.667969 14.671875 4.03125 C 15.308594 3.390625 16.003906 2.820312 16.753906 2.320312 C 17.503906 1.820312 18.296875 1.394531 19.128906 1.050781 C 19.964844 0.703125 20.824219 0.445312 21.707031 0.269531 C 22.59375 0.0898438 23.488281 0.00390625 24.390625 0.00390625 C 25.292969 0.00390625 26.1875 0.0898438 27.070312 0.269531 C 27.957031 0.445312 28.816406 0.703125 29.652344 1.050781 C 30.484375 1.394531 31.277344 1.820312 32.027344 2.320312 C 32.777344 2.820312 33.472656 3.390625 34.109375 4.03125 C 34.75 4.667969 35.316406 5.363281 35.820312 6.113281 C 36.320312 6.863281 36.746094 7.65625 37.089844 8.488281 C 37.433594 9.324219 37.695312 10.183594 37.871094 11.066406 C 38.046875 11.953125 38.136719 12.847656 38.136719 13.75 C 38.136719 14.652344 38.046875 15.546875 37.871094 16.429688 C 37.695312 17.316406 37.433594 18.175781 37.089844 19.007812 C 36.746094 19.84375 36.320312 20.636719 35.820312 21.386719 C 35.316406 22.136719 34.75 22.832031 34.109375 23.46875 C 33.472656 24.105469 32.777344 24.675781 32.027344 25.179688 C 31.277344 25.679688 30.484375 26.101562 29.652344 26.449219 C 28.816406 26.792969 27.957031 27.054688 27.070312 27.230469 C 26.1875 27.40625 25.292969 27.496094 24.390625 27.496094 C 23.488281 27.496094 22.59375 27.40625 21.707031 27.230469 C 20.824219 27.054688 19.964844 26.792969 19.128906 26.449219 C 18.296875 26.101562 17.503906 25.679688 16.753906 25.179688 C 16.003906 24.675781 15.308594 24.105469 14.671875 23.46875 C 14.03125 22.832031 13.460938 22.136719 12.960938 21.386719 C 12.460938 20.636719 12.035156 19.84375 11.691406 19.007812 C 11.34375 18.175781 11.085938 17.316406 10.910156 16.429688 C 10.734375 15.546875 10.644531 14.652344 10.644531 13.75 Z M 0.335938 51.796875 C 0.335938 41.21875 8.90625 32.648438 19.484375 32.648438 L 29.296875 32.648438 C 39.875 32.648438 48.445312 41.21875 48.445312 51.796875 C 48.445312 53.558594 47.015625 54.984375 45.253906 54.984375 L 3.523438 54.984375 C 1.765625 54.984375 0.335938 53.558594 0.335938 51.796875 Z M 65.765625 54.984375 L 50.96875 54.984375 C 51.546875 53.976562 51.890625 52.804688 51.890625 51.550781 L 51.890625 50.691406 C 51.890625 44.171875 48.980469 38.320312 44.398438 34.390625 C 44.65625 34.378906 44.902344 34.367188 45.160156 34.367188 L 51.753906 34.367188 C 61.308594 34.367188 69.0625 42.121094 69.0625 51.6875 C 69.0625 53.515625 67.582031 54.984375 65.765625 54.984375 Z M 46.726562 27.496094 C 43.398438 27.496094 40.390625 26.140625 38.210938 23.960938 C 40.328125 21.105469 41.574219 17.570312 41.574219 13.75 C 41.574219 10.871094 40.863281 8.152344 39.605469 5.769531 C 41.605469 4.308594 44.0625 3.441406 46.726562 3.441406 C 53.375 3.441406 58.753906 8.820312 58.753906 15.46875 C 58.753906 22.113281 53.375 27.496094 46.726562 27.496094 Z M 46.726562 27.496094 " fill-opacity="1" fill-rule="nonzero"/></g><g clip-path="url(#4f65ad063e)"><path fill="#00a3ff" d="M 10.644531 14.257812 C 10.644531 13.355469 10.734375 12.460938 10.910156 11.574219 C 11.085938 10.691406 11.34375 9.832031 11.691406 8.996094 C 12.035156 8.164062 12.460938 7.371094 12.960938 6.621094 C 13.460938 5.871094 14.03125 5.175781 14.671875 4.535156 C 15.308594 3.898438 16.003906 3.328125 16.753906 2.828125 C 17.503906 2.324219 18.296875 1.902344 19.128906 1.558594 C 19.964844 1.210938 20.824219 0.949219 21.707031 0.773438 C 22.59375 0.597656 23.488281 0.511719 24.390625 0.511719 C 25.292969 0.511719 26.1875 0.597656 27.070312 0.773438 C 27.957031 0.949219 28.816406 1.210938 29.652344 1.558594 C 30.484375 1.902344 31.277344 2.324219 32.027344 2.828125 C 32.777344 3.328125 33.472656 3.898438 34.109375 4.535156 C 34.75 5.175781 35.316406 5.871094 35.820312 6.621094 C 36.320312 7.371094 36.746094 8.164062 37.089844 8.996094 C 37.433594 9.832031 37.695312 10.691406 37.871094 11.574219 C 38.046875 12.460938 38.136719 13.355469 38.136719 14.257812 C 38.136719 15.160156 38.046875 16.054688 37.871094 16.9375 C 37.695312 17.824219 37.433594 18.683594 37.089844 19.515625 C 36.746094 20.351562 36.320312 21.144531 35.820312 21.894531 C 35.316406 22.644531 34.75 23.339844 34.109375 23.976562 C 33.472656 24.613281 32.777344 25.183594 32.027344 25.6875 C 31.277344 26.1875 30.484375 26.609375 29.652344 26.957031 C 28.816406 27.300781 27.957031 27.5625 27.070312 27.738281 C 26.1875 27.914062 25.292969 28.003906 24.390625 28.003906 C 23.488281 28.003906 22.59375 27.914062 21.707031 27.738281 C 20.824219 27.5625 19.964844 27.300781 19.128906 26.957031 C 18.296875 26.609375 17.503906 26.1875 16.753906 25.6875 C 16.003906 25.183594 15.308594 24.613281 14.671875 23.976562 C 14.03125 23.339844 13.460938 22.644531 12.960938 21.894531 C 12.460938 21.144531 12.035156 20.351562 11.691406 19.515625 C 11.34375 18.683594 11.085938 17.824219 10.910156 16.9375 C 10.734375 16.054688 10.644531 15.160156 10.644531 14.257812 Z M 0.335938 52.304688 C 0.335938 41.726562 8.90625 33.15625 19.484375 33.15625 L 29.296875 33.15625 C 39.875 33.15625 48.445312 41.726562 48.445312 52.304688 C 48.445312 54.066406 47.015625 55.492188 45.253906 55.492188 L 3.523438 55.492188 C 1.765625 55.492188 0.335938 54.066406 0.335938 52.304688 Z M 65.765625 55.492188 L 50.96875 55.492188 C 51.546875 54.484375 51.890625 53.3125 51.890625 52.058594 L 51.890625 51.199219 C 51.890625 44.679688 48.980469 38.828125 44.398438 34.894531 C 44.65625 34.886719 44.902344 34.875 45.160156 34.875 L 51.753906 34.875 C 61.308594 34.875 69.0625 42.628906 69.0625 52.195312 C 69.0625 54.023438 67.582031 55.492188 65.765625 55.492188 Z M 46.726562 28.003906 C 43.398438 28.003906 40.390625 26.648438 38.210938 24.46875 C 40.328125 21.613281 41.574219 18.078125 41.574219 14.257812 C 41.574219 11.378906 40.863281 8.660156 39.605469 6.277344 C 41.605469 4.816406 44.0625 3.949219 46.726562 3.949219 C 53.375 3.949219 58.753906 9.328125 58.753906 15.976562 C 58.753906 22.621094 53.375 28.003906 46.726562 28.003906 Z M 46.726562 28.003906 " fill-opacity="1" fill-rule="nonzero"/></g></svg>