<svg xmlns="http://www.w3.org/2000/svg" xmlns:xlink="http://www.w3.org/1999/xlink" width="93" zoomAndPan="magnify" viewBox="0 0 69.75 56.249996" height="75" preserveAspectRatio="xMidYMid meet" version="1.0"><defs><clipPath id="dfb37f204c"><path d="M 0.335938 0 L 69.167969 0 L 69.167969 54.769531 L 0.335938 54.769531 Z M 0.335938 0 " clip-rule="nonzero"/></clipPath></defs><g clip-path="url(#dfb37f204c)"><path fill="#d9d9d9" d="M 10.644531 13.75 C 10.644531 12.847656 10.734375 11.953125 10.910156 11.066406 C 11.085938 10.183594 11.34375 9.324219 11.691406 8.488281 C 12.035156 7.65625 12.460938 6.863281 12.960938 6.113281 C 13.460938 5.363281 14.03125 4.667969 14.671875 4.03125 C 15.308594 3.390625 16.003906 2.820312 16.753906 2.320312 C 17.503906 1.820312 18.296875 1.394531 19.128906 1.050781 C 19.964844 0.703125 20.824219 0.445312 21.707031 0.269531 C 22.59375 0.0898438 23.488281 0.00390625 24.390625 0.00390625 C 25.292969 0.00390625 26.1875 0.0898438 27.070312 0.269531 C 27.957031 0.445312 28.816406 0.703125 29.652344 1.050781 C 30.484375 1.394531 31.277344 1.820312 32.027344 2.320312 C 32.777344 2.820312 33.472656 3.390625 34.109375 4.03125 C 34.75 4.667969 35.316406 5.363281 35.820312 6.113281 C 36.320312 6.863281 36.746094 7.65625 37.089844 8.488281 C 37.433594 9.324219 37.695312 10.183594 37.871094 11.066406 C 38.046875 11.953125 38.136719 12.847656 38.136719 13.75 C 38.136719 14.652344 38.046875 15.546875 37.871094 16.429688 C 37.695312 17.316406 37.433594 18.175781 37.089844 19.007812 C 36.746094 19.84375 36.320312 20.636719 35.820312 21.386719 C 35.316406 22.136719 34.75 22.832031 34.109375 23.46875 C 33.472656 24.105469 32.777344 24.675781 32.027344 25.179688 C 31.277344 25.679688 30.484375 26.101562 29.652344 26.449219 C 28.816406 26.792969 27.957031 27.054688 27.070312 27.230469 C 26.1875 27.40625 25.292969 27.496094 24.390625 27.496094 C 23.488281 27.496094 22.59375 27.40625 21.707031 27.230469 C 20.824219 27.054688 19.964844 26.792969 19.128906 26.449219 C 18.296875 26.101562 17.503906 25.679688 16.753906 25.179688 C 16.003906 24.675781 15.308594 24.105469 14.671875 23.46875 C 14.03125 22.832031 13.460938 22.136719 12.960938 21.386719 C 12.460938 20.636719 12.035156 19.84375 11.691406 19.007812 C 11.34375 18.175781 11.085938 17.316406 10.910156 16.429688 C 10.734375 15.546875 10.644531 14.652344 10.644531 13.75 Z M 0.335938 51.796875 C 0.335938 41.21875 8.90625 32.648438 19.484375 32.648438 L 29.296875 32.648438 C 39.875 32.648438 48.445312 41.21875 48.445312 51.796875 C 48.445312 53.558594 47.015625 54.984375 45.253906 54.984375 L 3.523438 54.984375 C 1.765625 54.984375 0.335938 53.558594 0.335938 51.796875 Z M 65.765625 54.984375 L 50.96875 54.984375 C 51.546875 53.976562 51.890625 52.804688 51.890625 51.550781 L 51.890625 50.691406 C 51.890625 44.171875 48.980469 38.320312 44.398438 34.390625 C 44.65625 34.378906 44.902344 34.367188 45.160156 34.367188 L 51.753906 34.367188 C 61.308594 34.367188 69.0625 42.121094 69.0625 51.6875 C 69.0625 53.515625 67.582031 54.984375 65.765625 54.984375 Z M 46.726562 27.496094 C 43.398438 27.496094 40.390625 26.140625 38.210938 23.960938 C 40.328125 21.105469 41.574219 17.570312 41.574219 13.75 C 41.574219 10.871094 40.863281 8.152344 39.605469 5.769531 C 41.605469 4.308594 44.0625 3.441406 46.726562 3.441406 C 53.375 3.441406 58.753906 8.820312 58.753906 15.46875 C 58.753906 22.113281 53.375 27.496094 46.726562 27.496094 Z M 46.726562 27.496094 " fill-opacity="1" fill-rule="nonzero"/><path fill="#d9d9d9" d="M 10.644531 13.75 C 10.644531 12.847656 10.734375 11.953125 10.910156 11.066406 C 11.085938 10.183594 11.34375 9.324219 11.691406 8.488281 C 12.035156 7.65625 12.460938 6.863281 12.960938 6.113281 C 13.460938 5.363281 14.03125 4.667969 14.671875 4.03125 C 15.308594 3.390625 16.003906 2.820312 16.753906 2.320312 C 17.503906 1.820312 18.296875 1.394531 19.128906 1.050781 C 19.964844 0.703125 20.824219 0.445312 21.707031 0.269531 C 22.59375 0.0898438 23.488281 0.00390625 24.390625 0.00390625 C 25.292969 0.00390625 26.1875 0.0898438 27.070312 0.269531 C 27.957031 0.445312 28.816406 0.703125 29.652344 1.050781 C 30.484375 1.394531 31.277344 1.820312 32.027344 2.320312 C 32.777344 2.820312 33.472656 3.390625 34.109375 4.03125 C 34.75 4.667969 35.316406 5.363281 35.820312 6.113281 C 36.320312 6.863281 36.746094 7.65625 37.089844 8.488281 C 37.433594 9.324219 37.695312 10.183594 37.871094 11.066406 C 38.046875 11.953125 38.136719 12.847656 38.136719 13.75 C 38.136719 14.652344 38.046875 15.546875 37.871094 16.429688 C 37.695312 17.316406 37.433594 18.175781 37.089844 19.007812 C 36.746094 19.84375 36.320312 20.636719 35.820312 21.386719 C 35.316406 22.136719 34.75 22.832031 34.109375 23.46875 C 33.472656 24.105469 32.777344 24.675781 32.027344 25.179688 C 31.277344 25.679688 30.484375 26.101562 29.652344 26.449219 C 28.816406 26.792969 27.957031 27.054688 27.070312 27.230469 C 26.1875 27.40625 25.292969 27.496094 24.390625 27.496094 C 23.488281 27.496094 22.59375 27.40625 21.707031 27.230469 C 20.824219 27.054688 19.964844 26.792969 19.128906 26.449219 C 18.296875 26.101562 17.503906 25.679688 16.753906 25.179688 C 16.003906 24.675781 15.308594 24.105469 14.671875 23.46875 C 14.03125 22.832031 13.460938 22.136719 12.960938 21.386719 C 12.460938 20.636719 12.035156 19.84375 11.691406 19.007812 C 11.34375 18.175781 11.085938 17.316406 10.910156 16.429688 C 10.734375 15.546875 10.644531 14.652344 10.644531 13.75 Z M 0.335938 51.796875 C 0.335938 41.21875 8.90625 32.648438 19.484375 32.648438 L 29.296875 32.648438 C 39.875 32.648438 48.445312 41.21875 48.445312 51.796875 C 48.445312 53.558594 47.015625 54.984375 45.253906 54.984375 L 3.523438 54.984375 C 1.765625 54.984375 0.335938 53.558594 0.335938 51.796875 Z M 65.765625 54.984375 L 50.96875 54.984375 C 51.546875 53.976562 51.890625 52.804688 51.890625 51.550781 L 51.890625 50.691406 C 51.890625 44.171875 48.980469 38.320312 44.398438 34.390625 C 44.65625 34.378906 44.902344 34.367188 45.160156 34.367188 L 51.753906 34.367188 C 61.308594 34.367188 69.0625 42.121094 69.0625 51.6875 C 69.0625 53.515625 67.582031 54.984375 65.765625 54.984375 Z M 46.726562 27.496094 C 43.398438 27.496094 40.390625 26.140625 38.210938 23.960938 C 40.328125 21.105469 41.574219 17.570312 41.574219 13.75 C 41.574219 10.871094 40.863281 8.152344 39.605469 5.769531 C 41.605469 4.308594 44.0625 3.441406 46.726562 3.441406 C 53.375 3.441406 58.753906 8.820312 58.753906 15.46875 C 58.753906 22.113281 53.375 27.496094 46.726562 27.496094 Z M 46.726562 27.496094 " fill-opacity="1" fill-rule="nonzero"/></g></svg>